<svg width="53" height="53" viewBox="0 0 53 53" fill="none" xmlns="http://www.w3.org/2000/svg">
<path fill-rule="evenodd" clip-rule="evenodd" d="M3.3125 26.5C3.3125 32.6497 5.75546 38.5475 10.104 42.896C14.4525 47.2445 20.3503 49.6875 26.5 49.6875C32.6497 49.6875 38.5475 47.2445 42.896 42.896C47.2445 38.5475 49.6875 32.6497 49.6875 26.5C49.6875 20.3503 47.2445 14.4525 42.896 10.104C38.5475 5.75546 32.6497 3.3125 26.5 3.3125C20.3503 3.3125 14.4525 5.75546 10.104 10.104C5.75546 14.4525 3.3125 20.3503 3.3125 26.5V26.5ZM53 26.5C53 33.5282 50.208 40.2686 45.2383 45.2383C40.2686 50.208 33.5282 53 26.5 53C19.4718 53 12.7314 50.208 7.76167 45.2383C2.79196 40.2686 0 33.5282 0 26.5C0 19.4718 2.79196 12.7314 7.76167 7.76167C12.7314 2.79196 19.4718 0 26.5 0C33.5282 0 40.2686 2.79196 45.2383 7.76167C50.208 12.7314 53 19.4718 53 26.5V26.5ZM38.0938 24.8438C38.533 24.8438 38.9543 25.0182 39.2649 25.3289C39.5755 25.6395 39.75 26.0607 39.75 26.5C39.75 26.9393 39.5755 27.3605 39.2649 27.6711C38.9543 27.9818 38.533 28.1562 38.0938 28.1562H18.9044L26.0164 35.2649C26.1704 35.4189 26.2925 35.6017 26.3759 35.8029C26.4592 36.0041 26.5021 36.2197 26.5021 36.4375C26.5021 36.6553 26.4592 36.8709 26.3759 37.0721C26.2925 37.2733 26.1704 37.4561 26.0164 37.6101C25.8624 37.7641 25.6796 37.8863 25.4784 37.9696C25.2772 38.0529 25.0615 38.0958 24.8438 38.0958C24.626 38.0958 24.4103 38.0529 24.2091 37.9696C24.0079 37.8863 23.8251 37.7641 23.6711 37.6101L13.7336 27.6726C13.5794 27.5188 13.457 27.336 13.3735 27.1348C13.29 26.9336 13.247 26.7179 13.247 26.5C13.247 26.2821 13.29 26.0664 13.3735 25.8652C13.457 25.664 13.5794 25.4812 13.7336 25.3274L23.6711 15.3899C23.9821 15.0789 24.4039 14.9042 24.8438 14.9042C25.2836 14.9042 25.7054 15.0789 26.0164 15.3899C26.3274 15.7009 26.5021 16.1227 26.5021 16.5625C26.5021 17.0023 26.3274 17.4241 26.0164 17.7351L18.9044 24.8438H38.0938Z" fill="black"/>
</svg>
