<svg width="1180" height="147" viewBox="0 0 1180 147" fill="none" xmlns="http://www.w3.org/2000/svg">
<path d="M97.232 126.248V131H78.188V127.22L87.908 118.04C88.94 117.056 89.636 116.216 89.996 115.52C90.356 114.8 90.536 114.092 90.536 113.396C90.536 112.388 90.188 111.62 89.492 111.092C88.82 110.54 87.824 110.264 86.504 110.264C85.4 110.264 84.404 110.48 83.516 110.912C82.628 111.32 81.884 111.944 81.284 112.784L77.036 110.048C78.02 108.584 79.376 107.444 81.104 106.628C82.832 105.788 84.812 105.368 87.044 105.368C88.916 105.368 90.548 105.68 91.94 106.304C93.356 106.904 94.448 107.768 95.216 108.896C96.008 110 96.404 111.308 96.404 112.82C96.404 114.188 96.116 115.472 95.54 116.672C94.964 117.872 93.848 119.24 92.192 120.776L86.396 126.248H97.232ZM111.41 116.06C113.618 116.42 115.31 117.248 116.486 118.544C117.662 119.816 118.25 121.4 118.25 123.296C118.25 124.76 117.866 126.116 117.098 127.364C116.33 128.588 115.154 129.572 113.57 130.316C112.01 131.06 110.09 131.432 107.81 131.432C106.034 131.432 104.282 131.204 102.554 130.748C100.85 130.268 99.3984 129.596 98.1984 128.732L100.466 124.268C101.426 124.988 102.53 125.552 103.778 125.96C105.05 126.344 106.346 126.536 107.666 126.536C109.13 126.536 110.282 126.26 111.122 125.708C111.962 125.132 112.382 124.328 112.382 123.296C112.382 121.232 110.81 120.2 107.666 120.2H105.002V116.348L110.186 110.48H99.4584V105.8H117.098V109.58L111.41 116.06ZM124.291 124.304C125.299 124.304 126.127 124.628 126.775 125.276C127.423 125.9 127.747 126.728 127.747 127.76C127.747 128.24 127.687 128.72 127.567 129.2C127.447 129.68 127.183 130.4 126.775 131.36L124.723 136.544H121.159L122.743 130.82C122.143 130.58 121.663 130.196 121.303 129.668C120.967 129.116 120.799 128.48 120.799 127.76C120.799 126.728 121.123 125.9 121.771 125.276C122.443 124.628 123.283 124.304 124.291 124.304ZM142.489 116.06C144.697 116.42 146.389 117.248 147.565 118.544C148.741 119.816 149.329 121.4 149.329 123.296C149.329 124.76 148.945 126.116 148.177 127.364C147.409 128.588 146.233 129.572 144.649 130.316C143.089 131.06 141.169 131.432 138.889 131.432C137.113 131.432 135.361 131.204 133.633 130.748C131.929 130.268 130.477 129.596 129.276 128.732L131.545 124.268C132.505 124.988 133.609 125.552 134.857 125.96C136.129 126.344 137.425 126.536 138.745 126.536C140.209 126.536 141.361 126.26 142.201 125.708C143.041 125.132 143.461 124.328 143.461 123.296C143.461 121.232 141.889 120.2 138.745 120.2H136.081V116.348L141.265 110.48H130.537V105.8H148.177V109.58L142.489 116.06ZM168.049 119.408C166.201 119.408 164.689 118.784 163.513 117.536C162.361 116.264 161.785 114.572 161.785 112.46C161.785 110.348 162.361 108.668 163.513 107.42C164.689 106.148 166.201 105.512 168.049 105.512C169.897 105.512 171.397 106.148 172.549 107.42C173.701 108.668 174.277 110.348 174.277 112.46C174.277 114.572 173.701 116.264 172.549 117.536C171.397 118.784 169.897 119.408 168.049 119.408ZM183.061 105.8H187.345L170.137 131H165.853L183.061 105.8ZM168.049 116.456C168.865 116.456 169.501 116.12 169.957 115.448C170.437 114.776 170.677 113.78 170.677 112.46C170.677 111.14 170.437 110.144 169.957 109.472C169.501 108.8 168.865 108.464 168.049 108.464C167.257 108.464 166.621 108.812 166.141 109.508C165.661 110.18 165.421 111.164 165.421 112.46C165.421 113.756 165.661 114.752 166.141 115.448C166.621 116.12 167.257 116.456 168.049 116.456ZM185.149 131.288C183.949 131.288 182.869 131.012 181.909 130.46C180.973 129.884 180.241 129.068 179.713 128.012C179.185 126.956 178.921 125.732 178.921 124.34C178.921 122.948 179.185 121.724 179.713 120.668C180.241 119.612 180.973 118.808 181.909 118.256C182.869 117.68 183.949 117.392 185.149 117.392C186.997 117.392 188.497 118.028 189.649 119.3C190.825 120.548 191.413 122.228 191.413 124.34C191.413 126.452 190.825 128.144 189.649 129.416C188.497 130.664 186.997 131.288 185.149 131.288ZM185.149 128.336C185.965 128.336 186.601 128 187.057 127.328C187.537 126.632 187.777 125.636 187.777 124.34C187.777 123.044 187.537 122.06 187.057 121.388C186.601 120.692 185.965 120.344 185.149 120.344C184.357 120.344 183.721 120.68 183.241 121.352C182.761 122.024 182.521 123.02 182.521 124.34C182.521 125.66 182.761 126.656 183.241 127.328C183.721 128 184.357 128.336 185.149 128.336Z" fill="black"/>
<path d="M98.132 21.8V25.58L88.772 47H82.436L91.472 26.552H83.12V30.656H77.936V21.8H98.132ZM112.157 31.196C113.765 31.196 115.229 31.52 116.549 32.168C117.869 32.816 118.913 33.74 119.681 34.94C120.449 36.116 120.833 37.484 120.833 39.044C120.833 40.724 120.413 42.2 119.573 43.472C118.733 44.744 117.581 45.728 116.117 46.424C114.677 47.096 113.069 47.432 111.293 47.432C107.765 47.432 105.005 46.352 103.013 44.192C101.021 42.032 100.025 38.948 100.025 34.94C100.025 32.084 100.565 29.636 101.645 27.596C102.725 25.556 104.225 24.008 106.145 22.952C108.089 21.896 110.333 21.368 112.877 21.368C114.221 21.368 115.505 21.524 116.729 21.836C117.977 22.124 119.033 22.544 119.897 23.096L117.737 27.38C116.489 26.54 114.917 26.12 113.021 26.12C110.885 26.12 109.193 26.744 107.945 27.992C106.697 29.24 106.025 31.052 105.929 33.428C107.417 31.94 109.493 31.196 112.157 31.196ZM110.969 43.076C112.217 43.076 113.225 42.74 113.993 42.068C114.785 41.396 115.181 40.484 115.181 39.332C115.181 38.18 114.785 37.268 113.993 36.596C113.225 35.9 112.193 35.552 110.897 35.552C109.625 35.552 108.581 35.912 107.765 36.632C106.949 37.328 106.541 38.228 106.541 39.332C106.541 40.436 106.937 41.336 107.729 42.032C108.521 42.728 109.601 43.076 110.969 43.076ZM126.647 40.304C127.655 40.304 128.483 40.628 129.131 41.276C129.779 41.9 130.103 42.728 130.103 43.76C130.103 44.24 130.043 44.72 129.923 45.2C129.803 45.68 129.539 46.4 129.131 47.36L127.079 52.544H123.515L125.099 46.82C124.499 46.58 124.019 46.196 123.659 45.668C123.323 45.116 123.155 44.48 123.155 43.76C123.155 42.728 123.479 41.9 124.127 41.276C124.799 40.628 125.639 40.304 126.647 40.304ZM151.886 21.8V25.58L142.526 47H136.19L145.226 26.552H136.874V30.656H131.69V21.8H151.886ZM170.509 35.408C168.661 35.408 167.149 34.784 165.973 33.536C164.821 32.264 164.245 30.572 164.245 28.46C164.245 26.348 164.821 24.668 165.973 23.42C167.149 22.148 168.661 21.512 170.509 21.512C172.357 21.512 173.857 22.148 175.009 23.42C176.161 24.668 176.737 26.348 176.737 28.46C176.737 30.572 176.161 32.264 175.009 33.536C173.857 34.784 172.357 35.408 170.509 35.408ZM185.521 21.8H189.805L172.597 47H168.313L185.521 21.8ZM170.509 32.456C171.325 32.456 171.961 32.12 172.417 31.448C172.897 30.776 173.137 29.78 173.137 28.46C173.137 27.14 172.897 26.144 172.417 25.472C171.961 24.8 171.325 24.464 170.509 24.464C169.717 24.464 169.081 24.812 168.601 25.508C168.121 26.18 167.881 27.164 167.881 28.46C167.881 29.756 168.121 30.752 168.601 31.448C169.081 32.12 169.717 32.456 170.509 32.456ZM187.609 47.288C186.409 47.288 185.329 47.012 184.369 46.46C183.433 45.884 182.701 45.068 182.173 44.012C181.645 42.956 181.381 41.732 181.381 40.34C181.381 38.948 181.645 37.724 182.173 36.668C182.701 35.612 183.433 34.808 184.369 34.256C185.329 33.68 186.409 33.392 187.609 33.392C189.457 33.392 190.957 34.028 192.109 35.3C193.285 36.548 193.873 38.228 193.873 40.34C193.873 42.452 193.285 44.144 192.109 45.416C190.957 46.664 189.457 47.288 187.609 47.288ZM187.609 44.336C188.425 44.336 189.061 44 189.517 43.328C189.997 42.632 190.237 41.636 190.237 40.34C190.237 39.044 189.997 38.06 189.517 37.388C189.061 36.692 188.425 36.344 187.609 36.344C186.817 36.344 186.181 36.68 185.701 37.352C185.221 38.024 184.981 39.02 184.981 40.34C184.981 41.66 185.221 42.656 185.701 43.328C186.181 44 186.817 44.336 187.609 44.336Z" fill="#E08330"/>
<path d="M216.328 119.368H222.256C223.776 119.368 225.104 119.648 226.24 120.208C227.376 120.768 228.248 121.568 228.856 122.608C229.48 123.632 229.792 124.824 229.792 126.184C229.792 127.544 229.48 128.744 228.856 129.784C228.248 130.808 227.376 131.6 226.24 132.16C225.104 132.72 223.776 133 222.256 133H216.328V119.368ZM222.16 131.056C223.824 131.056 225.12 130.624 226.048 129.76C226.976 128.88 227.44 127.688 227.44 126.184C227.44 124.664 226.976 123.472 226.048 122.608C225.12 121.728 223.824 121.288 222.16 121.288H218.656V131.056H222.16ZM243.404 131.056V133H233.18V119.368H243.14V121.288H235.508V125.128H242.3V127.024H235.508V131.056H243.404ZM266.056 133L266.032 123.544L261.328 131.368H260.248L255.544 123.76V133H253.312V119.368H255.304L260.824 128.536L266.248 119.368H268.264L268.288 133H266.056ZM279.097 133.192C277.705 133.192 276.441 132.888 275.305 132.28C274.169 131.672 273.281 130.84 272.641 129.784C272.001 128.712 271.681 127.512 271.681 126.184C271.681 124.856 272.001 123.664 272.641 122.608C273.281 121.536 274.169 120.696 275.305 120.088C276.441 119.48 277.705 119.176 279.097 119.176C280.505 119.176 281.769 119.48 282.889 120.088C284.025 120.696 284.913 121.536 285.553 122.608C286.193 123.664 286.513 124.856 286.513 126.184C286.513 127.512 286.193 128.712 285.553 129.784C284.913 130.84 284.025 131.672 282.889 132.28C281.769 132.888 280.505 133.192 279.097 133.192ZM279.097 131.176C280.057 131.176 280.921 130.96 281.689 130.528C282.457 130.096 283.057 129.504 283.489 128.752C283.937 128 284.161 127.144 284.161 126.184C284.161 125.224 283.937 124.368 283.489 123.616C283.057 122.864 282.457 122.272 281.689 121.84C280.921 121.408 280.057 121.192 279.097 121.192C278.137 121.192 277.273 121.408 276.505 121.84C275.737 122.272 275.129 122.864 274.681 123.616C274.249 124.368 274.033 125.224 274.033 126.184C274.033 127.144 274.249 128 274.681 128.752C275.129 129.504 275.737 130.096 276.505 130.528C277.273 130.96 278.137 131.176 279.097 131.176ZM299.018 133L296.09 128.92C295.962 128.936 295.754 128.944 295.466 128.944H292.226V133H289.898V119.368H295.466C297.274 119.368 298.698 119.792 299.738 120.64C300.778 121.488 301.298 122.664 301.298 124.168C301.298 125.208 301.034 126.096 300.506 126.832C299.994 127.568 299.258 128.12 298.298 128.488L301.538 133H299.018ZM295.322 127.048C296.506 127.048 297.402 126.8 298.01 126.304C298.634 125.808 298.946 125.096 298.946 124.168C298.946 123.24 298.634 122.528 298.01 122.032C297.402 121.536 296.506 121.288 295.322 121.288H292.226V127.048H295.322ZM307.205 121.288H302.549V119.368H314.189V121.288H309.533V133H307.205V121.288ZM324.461 129.76H317.141L315.701 133H313.421L319.661 119.368H321.965L328.229 133H325.877L324.461 129.76ZM323.645 127.912L320.813 121.48L317.957 127.912H323.645ZM330.539 119.368H332.867V131.056H340.187V133H330.539V119.368ZM342.703 119.368H345.031V133H342.703V119.368ZM352.088 121.288H347.432V119.368H359.072V121.288H354.416V133H352.088V121.288ZM371.724 131.056V133H361.5V119.368H371.46V121.288H363.828V125.128H370.62V127.024H363.828V131.056H371.724ZM367.932 114.4H370.86L366.828 117.52H364.668L367.932 114.4Z" fill="#002637"/>
<path d="M216.328 35.368H222.256C223.776 35.368 225.104 35.648 226.24 36.208C227.376 36.768 228.248 37.568 228.856 38.608C229.48 39.632 229.792 40.824 229.792 42.184C229.792 43.544 229.48 44.744 228.856 45.784C228.248 46.808 227.376 47.6 226.24 48.16C225.104 48.72 223.776 49 222.256 49H216.328V35.368ZM222.16 47.056C223.824 47.056 225.12 46.624 226.048 45.76C226.976 44.88 227.44 43.688 227.44 42.184C227.44 40.664 226.976 39.472 226.048 38.608C225.12 37.728 223.824 37.288 222.16 37.288H218.656V47.056H222.16ZM243.404 47.056V49H233.18V35.368H243.14V37.288H235.508V41.128H242.3V43.024H235.508V47.056H243.404ZM257.296 49.192C256.24 49.192 255.208 49.048 254.2 48.76C253.208 48.456 252.432 48.056 251.872 47.56L252.784 45.736C253.328 46.184 254.008 46.544 254.824 46.816C255.656 47.088 256.512 47.224 257.392 47.224C258.464 47.224 259.248 47.048 259.744 46.696C260.256 46.344 260.512 45.888 260.512 45.328C260.512 44.896 260.36 44.544 260.056 44.272C259.768 44 259.4 43.792 258.952 43.648C258.504 43.504 257.896 43.352 257.128 43.192C256.088 42.968 255.24 42.736 254.584 42.496C253.944 42.256 253.392 41.88 252.928 41.368C252.48 40.84 252.256 40.128 252.256 39.232C252.256 38.016 252.744 37.04 253.72 36.304C254.712 35.552 256.056 35.176 257.752 35.176C258.616 35.176 259.448 35.28 260.248 35.488C261.064 35.68 261.76 35.968 262.336 36.352L261.496 38.224C260.456 37.504 259.184 37.144 257.68 37.144C256.64 37.144 255.864 37.328 255.352 37.696C254.84 38.048 254.584 38.512 254.584 39.088C254.584 39.52 254.728 39.872 255.016 40.144C255.32 40.416 255.696 40.624 256.144 40.768C256.608 40.912 257.224 41.064 257.992 41.224C259.048 41.464 259.888 41.704 260.512 41.944C261.152 42.168 261.696 42.536 262.144 43.048C262.608 43.56 262.84 44.248 262.84 45.112C262.84 46.36 262.344 47.352 261.352 48.088C260.376 48.824 259.024 49.192 257.296 49.192ZM272.206 49.192C270.814 49.192 269.55 48.888 268.414 48.28C267.278 47.672 266.39 46.84 265.75 45.784C265.11 44.712 264.79 43.512 264.79 42.184C264.79 40.856 265.11 39.664 265.75 38.608C266.39 37.536 267.278 36.696 268.414 36.088C269.55 35.48 270.814 35.176 272.206 35.176C273.614 35.176 274.878 35.48 275.998 36.088C277.134 36.696 278.022 37.536 278.662 38.608C279.302 39.664 279.622 40.856 279.622 42.184C279.622 43.512 279.302 44.712 278.662 45.784C278.022 46.84 277.134 47.672 275.998 48.28C274.878 48.888 273.614 49.192 272.206 49.192ZM272.206 47.176C273.166 47.176 274.03 46.96 274.798 46.528C275.566 46.096 276.166 45.504 276.598 44.752C277.046 44 277.27 43.144 277.27 42.184C277.27 41.224 277.046 40.368 276.598 39.616C276.166 38.864 275.566 38.272 274.798 37.84C274.03 37.408 273.166 37.192 272.206 37.192C271.246 37.192 270.382 37.408 269.614 37.84C268.846 38.272 268.238 38.864 267.79 39.616C267.358 40.368 267.142 41.224 267.142 42.184C267.142 43.144 267.358 44 267.79 44.752C268.238 45.504 268.846 46.096 269.614 46.528C270.382 46.96 271.246 47.176 272.206 47.176ZM292.128 49L289.2 44.92C289.072 44.936 288.864 44.944 288.576 44.944H285.336V49H283.008V35.368H288.576C290.384 35.368 291.808 35.792 292.848 36.64C293.888 37.488 294.408 38.664 294.408 40.168C294.408 41.208 294.144 42.096 293.616 42.832C293.104 43.568 292.368 44.12 291.408 44.488L294.648 49H292.128ZM288.432 43.048C289.616 43.048 290.512 42.8 291.12 42.304C291.744 41.808 292.056 41.096 292.056 40.168C292.056 39.24 291.744 38.528 291.12 38.032C290.512 37.536 289.616 37.288 288.432 37.288H285.336V43.048H288.432ZM300.315 37.288H295.659V35.368H307.299V37.288H302.643V49H300.315V37.288ZM309.726 35.368H312.054V49H309.726V35.368ZM326.911 47.056V49H316.687V35.368H326.647V37.288H319.015V41.128H325.807V43.024H319.015V47.056H326.911ZM334.359 49.192C333.303 49.192 332.271 49.048 331.263 48.76C330.271 48.456 329.495 48.056 328.935 47.56L329.847 45.736C330.391 46.184 331.071 46.544 331.887 46.816C332.719 47.088 333.575 47.224 334.455 47.224C335.527 47.224 336.311 47.048 336.807 46.696C337.319 46.344 337.575 45.888 337.575 45.328C337.575 44.896 337.423 44.544 337.119 44.272C336.831 44 336.463 43.792 336.015 43.648C335.567 43.504 334.959 43.352 334.191 43.192C333.151 42.968 332.303 42.736 331.647 42.496C331.007 42.256 330.455 41.88 329.991 41.368C329.543 40.84 329.319 40.128 329.319 39.232C329.319 38.016 329.807 37.04 330.783 36.304C331.775 35.552 333.119 35.176 334.815 35.176C335.679 35.176 336.511 35.28 337.311 35.488C338.127 35.68 338.823 35.968 339.399 36.352L338.559 38.224C337.519 37.504 336.247 37.144 334.743 37.144C333.703 37.144 332.927 37.328 332.415 37.696C331.903 38.048 331.647 38.512 331.647 39.088C331.647 39.52 331.791 39.872 332.079 40.144C332.383 40.416 332.759 40.624 333.207 40.768C333.671 40.912 334.287 41.064 335.055 41.224C336.111 41.464 336.951 41.704 337.575 41.944C338.215 42.168 338.759 42.536 339.207 43.048C339.671 43.56 339.903 44.248 339.903 45.112C339.903 46.36 339.407 47.352 338.415 48.088C337.439 48.824 336.087 49.192 334.359 49.192ZM355.69 49.192C354.298 49.192 353.034 48.888 351.898 48.28C350.778 47.672 349.898 46.84 349.258 45.784C348.618 44.712 348.298 43.512 348.298 42.184C348.298 40.856 348.618 39.664 349.258 38.608C349.898 37.536 350.778 36.696 351.898 36.088C353.034 35.48 354.298 35.176 355.69 35.176C358.042 35.176 359.834 35.888 361.066 37.312L359.578 38.824C358.554 37.736 357.282 37.192 355.762 37.192C354.786 37.192 353.906 37.408 353.122 37.84C352.354 38.256 351.746 38.848 351.298 39.616C350.866 40.368 350.65 41.224 350.65 42.184C350.65 43.128 350.866 43.984 351.298 44.752C351.746 45.504 352.354 46.096 353.122 46.528C353.906 46.96 354.786 47.176 355.762 47.176C357.266 47.176 358.538 46.624 359.578 45.52L361.066 47.032C359.818 48.472 358.026 49.192 355.69 49.192ZM364.195 35.368H366.523V47.056H373.843V49H364.195V35.368ZM385.118 45.76H377.798L376.358 49H374.078L380.318 35.368H382.622L388.886 49H386.534L385.118 45.76ZM384.302 43.912L381.47 37.48L378.614 43.912H384.302ZM395.179 49.192C394.123 49.192 393.091 49.048 392.083 48.76C391.091 48.456 390.315 48.056 389.755 47.56L390.667 45.736C391.211 46.184 391.891 46.544 392.707 46.816C393.539 47.088 394.395 47.224 395.275 47.224C396.347 47.224 397.131 47.048 397.627 46.696C398.139 46.344 398.395 45.888 398.395 45.328C398.395 44.896 398.243 44.544 397.939 44.272C397.651 44 397.283 43.792 396.835 43.648C396.387 43.504 395.779 43.352 395.011 43.192C393.971 42.968 393.123 42.736 392.467 42.496C391.827 42.256 391.275 41.88 390.811 41.368C390.363 40.84 390.139 40.128 390.139 39.232C390.139 38.016 390.627 37.04 391.603 36.304C392.595 35.552 393.939 35.176 395.635 35.176C396.499 35.176 397.331 35.28 398.131 35.488C398.947 35.68 399.643 35.968 400.219 36.352L399.379 38.224C398.339 37.504 397.067 37.144 395.563 37.144C394.523 37.144 393.747 37.328 393.235 37.696C392.723 38.048 392.467 38.512 392.467 39.088C392.467 39.52 392.611 39.872 392.899 40.144C393.203 40.416 393.579 40.624 394.027 40.768C394.491 40.912 395.107 41.064 395.875 41.224C396.931 41.464 397.771 41.704 398.395 41.944C399.035 42.168 399.579 42.536 400.027 43.048C400.491 43.56 400.723 44.248 400.723 45.112C400.723 46.36 400.227 47.352 399.235 48.088C398.259 48.824 396.907 49.192 395.179 49.192ZM407.929 49.192C406.873 49.192 405.841 49.048 404.833 48.76C403.841 48.456 403.065 48.056 402.505 47.56L403.417 45.736C403.961 46.184 404.641 46.544 405.457 46.816C406.289 47.088 407.145 47.224 408.025 47.224C409.097 47.224 409.881 47.048 410.377 46.696C410.889 46.344 411.145 45.888 411.145 45.328C411.145 44.896 410.993 44.544 410.689 44.272C410.401 44 410.033 43.792 409.585 43.648C409.137 43.504 408.529 43.352 407.761 43.192C406.721 42.968 405.873 42.736 405.217 42.496C404.577 42.256 404.025 41.88 403.561 41.368C403.113 40.84 402.889 40.128 402.889 39.232C402.889 38.016 403.377 37.04 404.353 36.304C405.345 35.552 406.689 35.176 408.385 35.176C409.249 35.176 410.081 35.28 410.881 35.488C411.697 35.68 412.393 35.968 412.969 36.352L412.129 38.224C411.089 37.504 409.817 37.144 408.313 37.144C407.273 37.144 406.497 37.328 405.985 37.696C405.473 38.048 405.217 38.512 405.217 39.088C405.217 39.52 405.361 39.872 405.649 40.144C405.953 40.416 406.329 40.624 406.777 40.768C407.241 40.912 407.857 41.064 408.625 41.224C409.681 41.464 410.521 41.704 411.145 41.944C411.785 42.168 412.329 42.536 412.777 43.048C413.241 43.56 413.473 44.248 413.473 45.112C413.473 46.36 412.977 47.352 411.985 48.088C411.009 48.824 409.657 49.192 407.929 49.192ZM416.695 35.368H419.023V49H416.695V35.368ZM437.936 50.392C437.056 51.416 435.88 51.928 434.408 51.928C433.48 51.928 432.616 51.72 431.816 51.304C431.016 50.888 430.128 50.176 429.152 49.168C427.856 49.072 426.696 48.712 425.672 48.088C424.648 47.464 423.84 46.64 423.248 45.616C422.672 44.576 422.384 43.432 422.384 42.184C422.384 40.856 422.704 39.664 423.344 38.608C423.984 37.536 424.872 36.696 426.008 36.088C427.144 35.48 428.408 35.176 429.8 35.176C431.208 35.176 432.472 35.48 433.592 36.088C434.728 36.696 435.616 37.536 436.256 38.608C436.896 39.664 437.216 40.856 437.216 42.184C437.216 43.832 436.736 45.264 435.776 46.48C434.816 47.68 433.552 48.496 431.984 48.928C432.384 49.344 432.784 49.648 433.184 49.84C433.584 50.032 434.008 50.128 434.456 50.128C435.352 50.128 436.136 49.768 436.808 49.048L437.936 50.392ZM424.736 42.184C424.736 43.144 424.952 44 425.384 44.752C425.832 45.504 426.44 46.096 427.208 46.528C427.976 46.96 428.84 47.176 429.8 47.176C430.76 47.176 431.624 46.96 432.392 46.528C433.16 46.096 433.76 45.504 434.192 44.752C434.64 44 434.864 43.144 434.864 42.184C434.864 41.224 434.64 40.368 434.192 39.616C433.76 38.864 433.16 38.272 432.392 37.84C431.624 37.408 430.76 37.192 429.8 37.192C428.84 37.192 427.976 37.408 427.208 37.84C426.44 38.272 425.832 38.864 425.384 39.616C424.952 40.368 424.736 41.224 424.736 42.184ZM446.433 49.192C444.561 49.192 443.097 48.664 442.041 47.608C440.985 46.552 440.457 45.072 440.457 43.168V35.368H442.785V43.12C442.785 44.448 443.097 45.456 443.721 46.144C444.345 46.832 445.257 47.176 446.457 47.176C447.641 47.176 448.545 46.832 449.169 46.144C449.809 45.456 450.129 44.448 450.129 43.12V35.368H452.409V43.168C452.409 45.072 451.881 46.552 450.825 47.608C449.769 48.664 448.305 49.192 446.433 49.192ZM467.138 47.056V49H456.914V35.368H466.874V37.288H459.242V41.128H466.034V43.024H459.242V47.056H467.138ZM474.585 49.192C473.529 49.192 472.497 49.048 471.489 48.76C470.497 48.456 469.721 48.056 469.161 47.56L470.073 45.736C470.617 46.184 471.297 46.544 472.113 46.816C472.945 47.088 473.801 47.224 474.681 47.224C475.753 47.224 476.537 47.048 477.033 46.696C477.545 46.344 477.801 45.888 477.801 45.328C477.801 44.896 477.649 44.544 477.345 44.272C477.057 44 476.689 43.792 476.241 43.648C475.793 43.504 475.185 43.352 474.417 43.192C473.377 42.968 472.529 42.736 471.873 42.496C471.233 42.256 470.681 41.88 470.217 41.368C469.769 40.84 469.545 40.128 469.545 39.232C469.545 38.016 470.033 37.04 471.009 36.304C472.001 35.552 473.345 35.176 475.041 35.176C475.905 35.176 476.737 35.28 477.537 35.488C478.353 35.68 479.049 35.968 479.625 36.352L478.785 38.224C477.745 37.504 476.473 37.144 474.969 37.144C473.929 37.144 473.153 37.328 472.641 37.696C472.129 38.048 471.873 38.512 471.873 39.088C471.873 39.52 472.017 39.872 472.305 40.144C472.609 40.416 472.985 40.624 473.433 40.768C473.897 40.912 474.513 41.064 475.281 41.224C476.337 41.464 477.177 41.704 477.801 41.944C478.441 42.168 478.985 42.536 479.433 43.048C479.897 43.56 480.129 44.248 480.129 45.112C480.129 46.36 479.633 47.352 478.641 48.088C477.665 48.824 476.313 49.192 474.585 49.192Z" fill="#002637"/>
<path fill-rule="evenodd" clip-rule="evenodd" d="M30 19.9058C46.643 2.87437 88.2541 32.6775 30 71C-28.2541 32.6812 13.357 2.87437 30 19.9058Z" fill="#E08330"/>
<path d="M8.76522 116.709L26.9391 92.5273C27.2955 92.0531 27.7576 91.6682 28.2889 91.4031C28.8202 91.138 29.406 91 30 91C30.594 91 31.1798 91.138 31.7111 91.4031C32.2423 91.6682 32.7045 92.0531 33.0609 92.5273L51.2348 116.709C51.7315 117.37 52 118.174 52 119C52 119.826 51.7315 120.63 51.2348 121.291L33.0609 145.473C32.7045 145.947 32.2423 146.332 31.7111 146.597C31.1798 146.862 30.594 147 30 147C29.406 147 28.8202 146.862 28.2889 146.597C27.7576 146.332 27.2955 145.947 26.9391 145.473L8.76522 121.291C8.26851 120.63 8 119.826 8 119C8 118.174 8.26851 117.37 8.76522 116.709Z" fill="black"/>
<path d="M806.328 31.368H812.256C813.776 31.368 815.104 31.648 816.24 32.208C817.376 32.768 818.248 33.568 818.856 34.608C819.48 35.632 819.792 36.824 819.792 38.184C819.792 39.544 819.48 40.744 818.856 41.784C818.248 42.808 817.376 43.6 816.24 44.16C815.104 44.72 813.776 45 812.256 45H806.328V31.368ZM812.16 43.056C813.824 43.056 815.12 42.624 816.048 41.76C816.976 40.88 817.44 39.688 817.44 38.184C817.44 36.664 816.976 35.472 816.048 34.608C815.12 33.728 813.824 33.288 812.16 33.288H808.656V43.056H812.16ZM833.404 43.056V45H823.18V31.368H833.14V33.288H825.508V37.128H832.3V39.024H825.508V43.056H833.404ZM847.296 45.192C846.24 45.192 845.208 45.048 844.2 44.76C843.208 44.456 842.432 44.056 841.872 43.56L842.784 41.736C843.328 42.184 844.008 42.544 844.824 42.816C845.656 43.088 846.512 43.224 847.392 43.224C848.464 43.224 849.248 43.048 849.744 42.696C850.256 42.344 850.512 41.888 850.512 41.328C850.512 40.896 850.36 40.544 850.056 40.272C849.768 40 849.4 39.792 848.952 39.648C848.504 39.504 847.896 39.352 847.128 39.192C846.088 38.968 845.24 38.736 844.584 38.496C843.944 38.256 843.392 37.88 842.928 37.368C842.48 36.84 842.256 36.128 842.256 35.232C842.256 34.016 842.744 33.04 843.72 32.304C844.712 31.552 846.056 31.176 847.752 31.176C848.616 31.176 849.448 31.28 850.248 31.488C851.064 31.68 851.76 31.968 852.336 32.352L851.496 34.224C850.456 33.504 849.184 33.144 847.68 33.144C846.64 33.144 845.864 33.328 845.352 33.696C844.84 34.048 844.584 34.512 844.584 35.088C844.584 35.52 844.728 35.872 845.016 36.144C845.32 36.416 845.696 36.624 846.144 36.768C846.608 36.912 847.224 37.064 847.992 37.224C849.048 37.464 849.888 37.704 850.512 37.944C851.152 38.168 851.696 38.536 852.144 39.048C852.608 39.56 852.84 40.248 852.84 41.112C852.84 42.36 852.344 43.352 851.352 44.088C850.376 44.824 849.024 45.192 847.296 45.192ZM862.206 45.192C860.814 45.192 859.55 44.888 858.414 44.28C857.278 43.672 856.39 42.84 855.75 41.784C855.11 40.712 854.79 39.512 854.79 38.184C854.79 36.856 855.11 35.664 855.75 34.608C856.39 33.536 857.278 32.696 858.414 32.088C859.55 31.48 860.814 31.176 862.206 31.176C863.614 31.176 864.878 31.48 865.998 32.088C867.134 32.696 868.022 33.536 868.662 34.608C869.302 35.664 869.622 36.856 869.622 38.184C869.622 39.512 869.302 40.712 868.662 41.784C868.022 42.84 867.134 43.672 865.998 44.28C864.878 44.888 863.614 45.192 862.206 45.192ZM862.206 43.176C863.166 43.176 864.03 42.96 864.798 42.528C865.566 42.096 866.166 41.504 866.598 40.752C867.046 40 867.27 39.144 867.27 38.184C867.27 37.224 867.046 36.368 866.598 35.616C866.166 34.864 865.566 34.272 864.798 33.84C864.03 33.408 863.166 33.192 862.206 33.192C861.246 33.192 860.382 33.408 859.614 33.84C858.846 34.272 858.238 34.864 857.79 35.616C857.358 36.368 857.142 37.224 857.142 38.184C857.142 39.144 857.358 40 857.79 40.752C858.238 41.504 858.846 42.096 859.614 42.528C860.382 42.96 861.246 43.176 862.206 43.176ZM882.128 45L879.2 40.92C879.072 40.936 878.864 40.944 878.576 40.944H875.336V45H873.008V31.368H878.576C880.384 31.368 881.808 31.792 882.848 32.64C883.888 33.488 884.408 34.664 884.408 36.168C884.408 37.208 884.144 38.096 883.616 38.832C883.104 39.568 882.368 40.12 881.408 40.488L884.648 45H882.128ZM878.432 39.048C879.616 39.048 880.512 38.8 881.12 38.304C881.744 37.808 882.056 37.096 882.056 36.168C882.056 35.24 881.744 34.528 881.12 34.032C880.512 33.536 879.616 33.288 878.432 33.288H875.336V39.048H878.432ZM890.315 33.288H885.659V31.368H897.299V33.288H892.643V45H890.315V33.288ZM899.726 31.368H902.054V45H899.726V31.368ZM916.911 43.056V45H906.687V31.368H916.647V33.288H909.015V37.128H915.807V39.024H909.015V43.056H916.911ZM924.359 45.192C923.303 45.192 922.271 45.048 921.263 44.76C920.271 44.456 919.495 44.056 918.935 43.56L919.847 41.736C920.391 42.184 921.071 42.544 921.887 42.816C922.719 43.088 923.575 43.224 924.455 43.224C925.527 43.224 926.311 43.048 926.807 42.696C927.319 42.344 927.575 41.888 927.575 41.328C927.575 40.896 927.423 40.544 927.119 40.272C926.831 40 926.463 39.792 926.015 39.648C925.567 39.504 924.959 39.352 924.191 39.192C923.151 38.968 922.303 38.736 921.647 38.496C921.007 38.256 920.455 37.88 919.991 37.368C919.543 36.84 919.319 36.128 919.319 35.232C919.319 34.016 919.807 33.04 920.783 32.304C921.775 31.552 923.119 31.176 924.815 31.176C925.679 31.176 926.511 31.28 927.311 31.488C928.127 31.68 928.823 31.968 929.399 32.352L928.559 34.224C927.519 33.504 926.247 33.144 924.743 33.144C923.703 33.144 922.927 33.328 922.415 33.696C921.903 34.048 921.647 34.512 921.647 35.088C921.647 35.52 921.791 35.872 922.079 36.144C922.383 36.416 922.759 36.624 923.207 36.768C923.671 36.912 924.287 37.064 925.055 37.224C926.111 37.464 926.951 37.704 927.575 37.944C928.215 38.168 928.759 38.536 929.207 39.048C929.671 39.56 929.903 40.248 929.903 41.112C929.903 42.36 929.407 43.352 928.415 44.088C927.439 44.824 926.087 45.192 924.359 45.192ZM939.57 31.368H945.498C947.018 31.368 948.346 31.648 949.482 32.208C950.618 32.768 951.49 33.568 952.098 34.608C952.722 35.632 953.034 36.824 953.034 38.184C953.034 39.544 952.722 40.744 952.098 41.784C951.49 42.808 950.618 43.6 949.482 44.16C948.346 44.72 947.018 45 945.498 45H939.57V31.368ZM945.402 43.056C947.066 43.056 948.362 42.624 949.29 41.76C950.218 40.88 950.682 39.688 950.682 38.184C950.682 36.664 950.218 35.472 949.29 34.608C948.362 33.728 947.066 33.288 945.402 33.288H941.898V43.056H945.402ZM966.646 43.056V45H956.422V31.368H966.382V33.288H958.75V37.128H965.542V39.024H958.75V43.056H966.646ZM962.854 26.4H965.782L961.75 29.52H959.59L962.854 26.4ZM976.159 45.192C974.767 45.192 973.503 44.888 972.367 44.28C971.247 43.672 970.367 42.84 969.727 41.784C969.087 40.712 968.767 39.512 968.767 38.184C968.767 36.856 969.087 35.664 969.727 34.608C970.367 33.536 971.247 32.696 972.367 32.088C973.503 31.48 974.767 31.176 976.159 31.176C978.511 31.176 980.303 31.888 981.535 33.312L980.047 34.824C979.023 33.736 977.751 33.192 976.231 33.192C975.255 33.192 974.375 33.408 973.591 33.84C972.823 34.256 972.215 34.848 971.767 35.616C971.335 36.368 971.119 37.224 971.119 38.184C971.119 39.128 971.335 39.984 971.767 40.752C972.215 41.504 972.823 42.096 973.591 42.528C974.375 42.96 975.255 43.176 976.231 43.176C977.735 43.176 979.007 42.624 980.047 41.52L981.535 43.032C980.287 44.472 978.495 45.192 976.159 45.192ZM994.888 43.056V45H984.664V31.368H994.624V33.288H986.992V37.128H993.784V39.024H986.992V43.056H994.888ZM985.24 26.4H988.168L991.432 29.52H989.272L985.24 26.4ZM1002.34 45.192C1001.28 45.192 1000.25 45.048 999.239 44.76C998.247 44.456 997.471 44.056 996.911 43.56L997.823 41.736C998.367 42.184 999.047 42.544 999.863 42.816C1000.7 43.088 1001.55 43.224 1002.43 43.224C1003.5 43.224 1004.29 43.048 1004.78 42.696C1005.3 42.344 1005.55 41.888 1005.55 41.328C1005.55 40.896 1005.4 40.544 1005.1 40.272C1004.81 40 1004.44 39.792 1003.99 39.648C1003.54 39.504 1002.94 39.352 1002.17 39.192C1001.13 38.968 1000.28 38.736 999.623 38.496C998.983 38.256 998.431 37.88 997.967 37.368C997.519 36.84 997.295 36.128 997.295 35.232C997.295 34.016 997.783 33.04 998.759 32.304C999.751 31.552 1001.1 31.176 1002.79 31.176C1003.66 31.176 1004.49 31.28 1005.29 31.488C1006.1 31.68 1006.8 31.968 1007.38 32.352L1006.54 34.224C1005.5 33.504 1004.22 33.144 1002.72 33.144C1001.68 33.144 1000.9 33.328 1000.39 33.696C999.879 34.048 999.623 34.512 999.623 35.088C999.623 35.52 999.767 35.872 1000.06 36.144C1000.36 36.416 1000.74 36.624 1001.18 36.768C1001.65 36.912 1002.26 37.064 1003.03 37.224C1004.09 37.464 1004.93 37.704 1005.55 37.944C1006.19 38.168 1006.74 38.536 1007.18 39.048C1007.65 39.56 1007.88 40.248 1007.88 41.112C1007.88 42.36 1007.38 43.352 1006.39 44.088C1005.42 44.824 1004.06 45.192 1002.34 45.192ZM1023.67 45.192C1022.27 45.192 1021.01 44.888 1019.87 44.28C1018.75 43.672 1017.87 42.84 1017.23 41.784C1016.59 40.712 1016.27 39.512 1016.27 38.184C1016.27 36.856 1016.59 35.664 1017.23 34.608C1017.87 33.536 1018.75 32.696 1019.87 32.088C1021.01 31.48 1022.27 31.176 1023.67 31.176C1026.02 31.176 1027.81 31.888 1029.04 33.312L1027.55 34.824C1026.53 33.736 1025.26 33.192 1023.74 33.192C1022.76 33.192 1021.88 33.408 1021.1 33.84C1020.33 34.256 1019.72 34.848 1019.27 35.616C1018.84 36.368 1018.63 37.224 1018.63 38.184C1018.63 39.128 1018.84 39.984 1019.27 40.752C1019.72 41.504 1020.33 42.096 1021.1 42.528C1021.88 42.96 1022.76 43.176 1023.74 43.176C1025.24 43.176 1026.51 42.624 1027.55 41.52L1029.04 43.032C1027.79 44.472 1026 45.192 1023.67 45.192ZM1040.46 41.76H1033.14L1031.7 45H1029.42L1035.66 31.368H1037.97L1044.23 45H1041.88L1040.46 41.76ZM1039.65 39.912L1036.81 33.48L1033.96 39.912H1039.65ZM1052.02 45.192C1050.15 45.192 1048.68 44.664 1047.63 43.608C1046.57 42.552 1046.04 41.072 1046.04 39.168V31.368H1048.37V39.12C1048.37 40.448 1048.68 41.456 1049.31 42.144C1049.93 42.832 1050.84 43.176 1052.04 43.176C1053.23 43.176 1054.13 42.832 1054.76 42.144C1055.4 41.456 1055.72 40.448 1055.72 39.12V31.368H1058V39.168C1058 41.072 1057.47 42.552 1056.41 43.608C1055.36 44.664 1053.89 45.192 1052.02 45.192ZM1066.48 45.192C1065.43 45.192 1064.4 45.048 1063.39 44.76C1062.4 44.456 1061.62 44.056 1061.06 43.56L1061.97 41.736C1062.52 42.184 1063.2 42.544 1064.01 42.816C1064.84 43.088 1065.7 43.224 1066.58 43.224C1067.65 43.224 1068.44 43.048 1068.93 42.696C1069.44 42.344 1069.7 41.888 1069.7 41.328C1069.7 40.896 1069.55 40.544 1069.24 40.272C1068.96 40 1068.59 39.792 1068.14 39.648C1067.69 39.504 1067.08 39.352 1066.32 39.192C1065.28 38.968 1064.43 38.736 1063.77 38.496C1063.13 38.256 1062.58 37.88 1062.12 37.368C1061.67 36.84 1061.44 36.128 1061.44 35.232C1061.44 34.016 1061.93 33.04 1062.91 32.304C1063.9 31.552 1065.24 31.176 1066.94 31.176C1067.8 31.176 1068.64 31.28 1069.44 31.488C1070.25 31.68 1070.95 31.968 1071.52 32.352L1070.68 34.224C1069.64 33.504 1068.37 33.144 1066.87 33.144C1065.83 33.144 1065.05 33.328 1064.54 33.696C1064.03 34.048 1063.77 34.512 1063.77 35.088C1063.77 35.52 1063.92 35.872 1064.2 36.144C1064.51 36.416 1064.88 36.624 1065.33 36.768C1065.8 36.912 1066.41 37.064 1067.18 37.224C1068.24 37.464 1069.08 37.704 1069.7 37.944C1070.34 38.168 1070.88 38.536 1071.33 39.048C1071.8 39.56 1072.03 40.248 1072.03 41.112C1072.03 42.36 1071.53 43.352 1070.54 44.088C1069.56 44.824 1068.21 45.192 1066.48 45.192ZM1085.47 43.056V45H1075.25V31.368H1085.21V33.288H1077.58V37.128H1084.37V39.024H1077.58V43.056H1085.47ZM1101.5 45.192C1100.11 45.192 1098.85 44.888 1097.71 44.28C1096.59 43.672 1095.71 42.84 1095.07 41.784C1094.43 40.712 1094.11 39.512 1094.11 38.184C1094.11 36.856 1094.43 35.664 1095.07 34.608C1095.71 33.536 1096.59 32.696 1097.71 32.088C1098.85 31.48 1100.11 31.176 1101.5 31.176C1103.85 31.176 1105.65 31.888 1106.88 33.312L1105.39 34.824C1104.37 33.736 1103.09 33.192 1101.57 33.192C1100.6 33.192 1099.72 33.408 1098.93 33.84C1098.17 34.256 1097.56 34.848 1097.11 35.616C1096.68 36.368 1096.46 37.224 1096.46 38.184C1096.46 39.128 1096.68 39.984 1097.11 40.752C1097.56 41.504 1098.17 42.096 1098.93 42.528C1099.72 42.96 1100.6 43.176 1101.57 43.176C1103.08 43.176 1104.35 42.624 1105.39 41.52L1106.88 43.032C1105.63 44.472 1103.84 45.192 1101.5 45.192ZM1110.01 31.368H1112.34V37.128H1119.8V31.368H1122.13V45H1119.8V39.048H1112.34V45H1110.01V31.368ZM1132.62 45.192C1130.75 45.192 1129.28 44.664 1128.23 43.608C1127.17 42.552 1126.64 41.072 1126.64 39.168V31.368H1128.97V39.12C1128.97 40.448 1129.28 41.456 1129.91 42.144C1130.53 42.832 1131.44 43.176 1132.64 43.176C1133.83 43.176 1134.73 42.832 1135.36 42.144C1136 41.456 1136.32 40.448 1136.32 39.12V31.368H1138.6V39.168C1138.6 41.072 1138.07 42.552 1137.01 43.608C1135.96 44.664 1134.49 45.192 1132.62 45.192ZM1145.53 33.288H1140.87V31.368H1152.51V33.288H1147.85V45H1145.53V33.288ZM1165.16 43.056V45H1154.94V31.368H1164.9V33.288H1157.27V37.128H1164.06V39.024H1157.27V43.056H1165.16ZM1172.61 45.192C1171.55 45.192 1170.52 45.048 1169.51 44.76C1168.52 44.456 1167.74 44.056 1167.18 43.56L1168.1 41.736C1168.64 42.184 1169.32 42.544 1170.14 42.816C1170.97 43.088 1171.82 43.224 1172.7 43.224C1173.78 43.224 1174.56 43.048 1175.06 42.696C1175.57 42.344 1175.82 41.888 1175.82 41.328C1175.82 40.896 1175.67 40.544 1175.37 40.272C1175.08 40 1174.71 39.792 1174.26 39.648C1173.82 39.504 1173.21 39.352 1172.44 39.192C1171.4 38.968 1170.55 38.736 1169.9 38.496C1169.26 38.256 1168.7 37.88 1168.24 37.368C1167.79 36.84 1167.57 36.128 1167.57 35.232C1167.57 34.016 1168.06 33.04 1169.03 32.304C1170.02 31.552 1171.37 31.176 1173.06 31.176C1173.93 31.176 1174.76 31.28 1175.56 31.488C1176.38 31.68 1177.07 31.968 1177.65 32.352L1176.81 34.224C1175.77 33.504 1174.5 33.144 1172.99 33.144C1171.95 33.144 1171.18 33.328 1170.66 33.696C1170.15 34.048 1169.9 34.512 1169.9 35.088C1169.9 35.52 1170.04 35.872 1170.33 36.144C1170.63 36.416 1171.01 36.624 1171.46 36.768C1171.92 36.912 1172.54 37.064 1173.3 37.224C1174.36 37.464 1175.2 37.704 1175.82 37.944C1176.46 38.168 1177.01 38.536 1177.46 39.048C1177.92 39.56 1178.15 40.248 1178.15 41.112C1178.15 42.36 1177.66 43.352 1176.66 44.088C1175.69 44.824 1174.34 45.192 1172.61 45.192Z" fill="#002637"/>
<path d="M651.044 31.268C654.596 31.268 657.212 31.976 658.892 33.392C660.596 34.808 661.448 36.704 661.448 39.08C661.448 40.616 661.064 42.02 660.296 43.292C659.528 44.54 658.352 45.548 656.768 46.316C655.208 47.06 653.276 47.432 650.972 47.432C649.196 47.432 647.444 47.204 645.716 46.748C644.012 46.268 642.56 45.596 641.36 44.732L643.664 40.268C644.624 40.988 645.728 41.552 646.976 41.96C648.224 42.344 649.508 42.536 650.828 42.536C652.292 42.536 653.444 42.248 654.284 41.672C655.124 41.096 655.544 40.292 655.544 39.26C655.544 38.18 655.1 37.364 654.212 36.812C653.348 36.26 651.836 35.984 649.676 35.984H643.232L644.528 21.8H659.9V26.48H649.388L648.992 31.268H651.044ZM672.67 21.368C676.198 21.368 678.958 22.448 680.95 24.608C682.942 26.744 683.938 29.828 683.938 33.86C683.938 36.716 683.398 39.164 682.318 41.204C681.262 43.244 679.762 44.792 677.818 45.848C675.874 46.904 673.63 47.432 671.086 47.432C669.742 47.432 668.458 47.288 667.234 47C666.01 46.688 664.966 46.256 664.102 45.704L666.262 41.42C667.486 42.26 669.058 42.68 670.978 42.68C673.114 42.68 674.806 42.056 676.054 40.808C677.302 39.536 677.974 37.712 678.07 35.336C676.558 36.848 674.47 37.604 671.806 37.604C670.198 37.604 668.734 37.28 667.414 36.632C666.094 35.984 665.05 35.072 664.282 33.896C663.514 32.696 663.13 31.316 663.13 29.756C663.13 28.076 663.55 26.6 664.39 25.328C665.23 24.056 666.37 23.084 667.81 22.412C669.274 21.716 670.894 21.368 672.67 21.368ZM673.102 33.248C674.374 33.248 675.406 32.9 676.198 32.204C677.014 31.484 677.422 30.572 677.422 29.468C677.422 28.364 677.026 27.464 676.234 26.768C675.466 26.072 674.398 25.724 673.03 25.724C671.782 25.724 670.762 26.06 669.97 26.732C669.202 27.404 668.818 28.316 668.818 29.468C668.818 30.62 669.202 31.544 669.97 32.24C670.762 32.912 671.806 33.248 673.102 33.248ZM689.627 40.304C690.635 40.304 691.463 40.628 692.111 41.276C692.759 41.9 693.083 42.728 693.083 43.76C693.083 44.24 693.023 44.72 692.903 45.2C692.783 45.68 692.519 46.4 692.111 47.36L690.059 52.544H686.495L688.079 46.82C687.479 46.58 686.999 46.196 686.639 45.668C686.303 45.116 686.135 44.48 686.135 43.76C686.135 42.728 686.459 41.9 687.107 41.276C687.779 40.628 688.619 40.304 689.627 40.304ZM704.858 21.8V47H699.026V26.48H693.986V21.8H704.858ZM726.48 33.752C727.728 34.376 728.676 35.192 729.324 36.2C729.996 37.208 730.332 38.372 730.332 39.692C730.332 41.252 729.888 42.62 729 43.796C728.112 44.948 726.864 45.848 725.256 46.496C723.648 47.12 721.788 47.432 719.676 47.432C717.564 47.432 715.704 47.12 714.096 46.496C712.512 45.848 711.276 44.948 710.388 43.796C709.524 42.62 709.092 41.252 709.092 39.692C709.092 38.372 709.416 37.208 710.064 36.2C710.736 35.192 711.684 34.376 712.908 33.752C711.972 33.176 711.252 32.456 710.748 31.592C710.244 30.704 709.992 29.696 709.992 28.568C709.992 27.104 710.4 25.832 711.216 24.752C712.032 23.672 713.172 22.844 714.636 22.268C716.1 21.668 717.78 21.368 719.676 21.368C721.596 21.368 723.288 21.668 724.752 22.268C726.24 22.844 727.392 23.672 728.208 24.752C729.024 25.832 729.432 27.104 729.432 28.568C729.432 29.696 729.18 30.704 728.676 31.592C728.172 32.456 727.44 33.176 726.48 33.752ZM719.676 25.652C718.5 25.652 717.552 25.94 716.832 26.516C716.136 27.068 715.788 27.836 715.788 28.82C715.788 29.78 716.136 30.536 716.832 31.088C717.528 31.64 718.476 31.916 719.676 31.916C720.876 31.916 721.836 31.64 722.556 31.088C723.276 30.536 723.636 29.78 723.636 28.82C723.636 27.836 723.276 27.068 722.556 26.516C721.836 25.94 720.876 25.652 719.676 25.652ZM719.676 43.148C721.14 43.148 722.292 42.824 723.132 42.176C723.996 41.504 724.428 40.616 724.428 39.512C724.428 38.408 723.996 37.532 723.132 36.884C722.292 36.236 721.14 35.912 719.676 35.912C718.236 35.912 717.096 36.236 716.256 36.884C715.416 37.532 714.996 38.408 714.996 39.512C714.996 40.64 715.416 41.528 716.256 42.176C717.096 42.824 718.236 43.148 719.676 43.148ZM749.029 35.408C747.181 35.408 745.669 34.784 744.493 33.536C743.341 32.264 742.765 30.572 742.765 28.46C742.765 26.348 743.341 24.668 744.493 23.42C745.669 22.148 747.181 21.512 749.029 21.512C750.877 21.512 752.377 22.148 753.529 23.42C754.681 24.668 755.257 26.348 755.257 28.46C755.257 30.572 754.681 32.264 753.529 33.536C752.377 34.784 750.877 35.408 749.029 35.408ZM764.041 21.8H768.325L751.117 47H746.833L764.041 21.8ZM749.029 32.456C749.845 32.456 750.481 32.12 750.937 31.448C751.417 30.776 751.657 29.78 751.657 28.46C751.657 27.14 751.417 26.144 750.937 25.472C750.481 24.8 749.845 24.464 749.029 24.464C748.237 24.464 747.601 24.812 747.121 25.508C746.641 26.18 746.401 27.164 746.401 28.46C746.401 29.756 746.641 30.752 747.121 31.448C747.601 32.12 748.237 32.456 749.029 32.456ZM766.129 47.288C764.929 47.288 763.849 47.012 762.889 46.46C761.953 45.884 761.221 45.068 760.693 44.012C760.165 42.956 759.901 41.732 759.901 40.34C759.901 38.948 760.165 37.724 760.693 36.668C761.221 35.612 761.953 34.808 762.889 34.256C763.849 33.68 764.929 33.392 766.129 33.392C767.977 33.392 769.477 34.028 770.629 35.3C771.805 36.548 772.393 38.228 772.393 40.34C772.393 42.452 771.805 44.144 770.629 45.416C769.477 46.664 767.977 47.288 766.129 47.288ZM766.129 44.336C766.945 44.336 767.581 44 768.037 43.328C768.517 42.632 768.757 41.636 768.757 40.34C768.757 39.044 768.517 38.06 768.037 37.388C767.581 36.692 766.945 36.344 766.129 36.344C765.337 36.344 764.701 36.68 764.221 37.352C763.741 38.024 763.501 39.02 763.501 40.34C763.501 41.66 763.741 42.656 764.221 43.328C764.701 44 765.337 44.336 766.129 44.336Z" fill="#E08330"/>
<path d="M668.48 122.708H664.376V128H658.688V122.708H645.116V118.784L656.996 102.8H663.116L652.1 117.956H658.868V113.24H664.376V117.956H668.48V122.708ZM681.024 128.432C678.936 128.432 677.076 127.916 675.444 126.884C673.812 125.852 672.528 124.364 671.592 122.42C670.68 120.452 670.224 118.112 670.224 115.4C670.224 112.688 670.68 110.36 671.592 108.416C672.528 106.448 673.812 104.948 675.444 103.916C677.076 102.884 678.936 102.368 681.024 102.368C683.112 102.368 684.972 102.884 686.604 103.916C688.236 104.948 689.508 106.448 690.42 108.416C691.356 110.36 691.824 112.688 691.824 115.4C691.824 118.112 691.356 120.452 690.42 122.42C689.508 124.364 688.236 125.852 686.604 126.884C684.972 127.916 683.112 128.432 681.024 128.432ZM681.024 123.5C682.56 123.5 683.76 122.84 684.624 121.52C685.512 120.2 685.956 118.16 685.956 115.4C685.956 112.64 685.512 110.6 684.624 109.28C683.76 107.96 682.56 107.3 681.024 107.3C679.512 107.3 678.312 107.96 677.424 109.28C676.56 110.6 676.128 112.64 676.128 115.4C676.128 118.16 676.56 120.2 677.424 121.52C678.312 122.84 679.512 123.5 681.024 123.5ZM697.549 121.304C698.557 121.304 699.385 121.628 700.033 122.276C700.681 122.9 701.005 123.728 701.005 124.76C701.005 125.24 700.945 125.72 700.825 126.2C700.705 126.68 700.441 127.4 700.033 128.36L697.981 133.544H694.417L696.001 127.82C695.401 127.58 694.921 127.196 694.561 126.668C694.225 126.116 694.057 125.48 694.057 124.76C694.057 123.728 694.381 122.9 695.029 122.276C695.701 121.628 696.541 121.304 697.549 121.304ZM721.218 114.752C722.466 115.376 723.414 116.192 724.062 117.2C724.734 118.208 725.07 119.372 725.07 120.692C725.07 122.252 724.626 123.62 723.738 124.796C722.85 125.948 721.602 126.848 719.994 127.496C718.386 128.12 716.526 128.432 714.414 128.432C712.302 128.432 710.442 128.12 708.834 127.496C707.25 126.848 706.014 125.948 705.126 124.796C704.262 123.62 703.83 122.252 703.83 120.692C703.83 119.372 704.154 118.208 704.802 117.2C705.474 116.192 706.422 115.376 707.646 114.752C706.71 114.176 705.99 113.456 705.486 112.592C704.982 111.704 704.73 110.696 704.73 109.568C704.73 108.104 705.138 106.832 705.954 105.752C706.77 104.672 707.91 103.844 709.374 103.268C710.838 102.668 712.518 102.368 714.414 102.368C716.334 102.368 718.026 102.668 719.49 103.268C720.978 103.844 722.13 104.672 722.946 105.752C723.762 106.832 724.17 108.104 724.17 109.568C724.17 110.696 723.918 111.704 723.414 112.592C722.91 113.456 722.178 114.176 721.218 114.752ZM714.414 106.652C713.238 106.652 712.29 106.94 711.57 107.516C710.874 108.068 710.526 108.836 710.526 109.82C710.526 110.78 710.874 111.536 711.57 112.088C712.266 112.64 713.214 112.916 714.414 112.916C715.614 112.916 716.574 112.64 717.294 112.088C718.014 111.536 718.374 110.78 718.374 109.82C718.374 108.836 718.014 108.068 717.294 107.516C716.574 106.94 715.614 106.652 714.414 106.652ZM714.414 124.148C715.878 124.148 717.03 123.824 717.87 123.176C718.734 122.504 719.166 121.616 719.166 120.512C719.166 119.408 718.734 118.532 717.87 117.884C717.03 117.236 715.878 116.912 714.414 116.912C712.974 116.912 711.834 117.236 710.994 117.884C710.154 118.532 709.734 119.408 709.734 120.512C709.734 121.64 710.154 122.528 710.994 123.176C711.834 123.824 712.974 124.148 714.414 124.148ZM746.568 123.248V128H727.524V124.22L737.244 115.04C738.276 114.056 738.972 113.216 739.332 112.52C739.692 111.8 739.872 111.092 739.872 110.396C739.872 109.388 739.524 108.62 738.828 108.092C738.156 107.54 737.16 107.264 735.84 107.264C734.736 107.264 733.74 107.48 732.852 107.912C731.964 108.32 731.22 108.944 730.62 109.784L726.372 107.048C727.356 105.584 728.712 104.444 730.44 103.628C732.168 102.788 734.148 102.368 736.38 102.368C738.252 102.368 739.884 102.68 741.276 103.304C742.692 103.904 743.784 104.768 744.552 105.896C745.344 107 745.74 108.308 745.74 109.82C745.74 111.188 745.452 112.472 744.876 113.672C744.3 114.872 743.184 116.24 741.528 117.776L735.732 123.248H746.568ZM765.002 116.408C763.154 116.408 761.642 115.784 760.466 114.536C759.314 113.264 758.738 111.572 758.738 109.46C758.738 107.348 759.314 105.668 760.466 104.42C761.642 103.148 763.154 102.512 765.002 102.512C766.85 102.512 768.35 103.148 769.502 104.42C770.654 105.668 771.23 107.348 771.23 109.46C771.23 111.572 770.654 113.264 769.502 114.536C768.35 115.784 766.85 116.408 765.002 116.408ZM780.014 102.8H784.298L767.09 128H762.806L780.014 102.8ZM765.002 113.456C765.818 113.456 766.454 113.12 766.91 112.448C767.39 111.776 767.63 110.78 767.63 109.46C767.63 108.14 767.39 107.144 766.91 106.472C766.454 105.8 765.818 105.464 765.002 105.464C764.21 105.464 763.574 105.812 763.094 106.508C762.614 107.18 762.374 108.164 762.374 109.46C762.374 110.756 762.614 111.752 763.094 112.448C763.574 113.12 764.21 113.456 765.002 113.456ZM782.102 128.288C780.902 128.288 779.822 128.012 778.862 127.46C777.926 126.884 777.194 126.068 776.666 125.012C776.138 123.956 775.874 122.732 775.874 121.34C775.874 119.948 776.138 118.724 776.666 117.668C777.194 116.612 777.926 115.808 778.862 115.256C779.822 114.68 780.902 114.392 782.102 114.392C783.95 114.392 785.45 115.028 786.602 116.3C787.778 117.548 788.366 119.228 788.366 121.34C788.366 123.452 787.778 125.144 786.602 126.416C785.45 127.664 783.95 128.288 782.102 128.288ZM782.102 125.336C782.918 125.336 783.554 125 784.01 124.328C784.49 123.632 784.73 122.636 784.73 121.34C784.73 120.044 784.49 119.06 784.01 118.388C783.554 117.692 782.918 117.344 782.102 117.344C781.31 117.344 780.674 117.68 780.194 118.352C779.714 119.024 779.474 120.02 779.474 121.34C779.474 122.66 779.714 123.656 780.194 124.328C780.674 125 781.31 125.336 782.102 125.336Z" fill="#4EAABF"/>
<path d="M810.328 109.368H816.256C817.776 109.368 819.104 109.648 820.24 110.208C821.376 110.768 822.248 111.568 822.856 112.608C823.48 113.632 823.792 114.824 823.792 116.184C823.792 117.544 823.48 118.744 822.856 119.784C822.248 120.808 821.376 121.6 820.24 122.16C819.104 122.72 817.776 123 816.256 123H810.328V109.368ZM816.16 121.056C817.824 121.056 819.12 120.624 820.048 119.76C820.976 118.88 821.44 117.688 821.44 116.184C821.44 114.664 820.976 113.472 820.048 112.608C819.12 111.728 817.824 111.288 816.16 111.288H812.656V121.056H816.16ZM837.404 121.056V123H827.18V109.368H837.14V111.288H829.508V115.128H836.3V117.024H829.508V121.056H837.404ZM851.296 123.192C850.24 123.192 849.208 123.048 848.2 122.76C847.208 122.456 846.432 122.056 845.872 121.56L846.784 119.736C847.328 120.184 848.008 120.544 848.824 120.816C849.656 121.088 850.512 121.224 851.392 121.224C852.464 121.224 853.248 121.048 853.744 120.696C854.256 120.344 854.512 119.888 854.512 119.328C854.512 118.896 854.36 118.544 854.056 118.272C853.768 118 853.4 117.792 852.952 117.648C852.504 117.504 851.896 117.352 851.128 117.192C850.088 116.968 849.24 116.736 848.584 116.496C847.944 116.256 847.392 115.88 846.928 115.368C846.48 114.84 846.256 114.128 846.256 113.232C846.256 112.016 846.744 111.04 847.72 110.304C848.712 109.552 850.056 109.176 851.752 109.176C852.616 109.176 853.448 109.28 854.248 109.488C855.064 109.68 855.76 109.968 856.336 110.352L855.496 112.224C854.456 111.504 853.184 111.144 851.68 111.144C850.64 111.144 849.864 111.328 849.352 111.696C848.84 112.048 848.584 112.512 848.584 113.088C848.584 113.52 848.728 113.872 849.016 114.144C849.32 114.416 849.696 114.624 850.144 114.768C850.608 114.912 851.224 115.064 851.992 115.224C853.048 115.464 853.888 115.704 854.512 115.944C855.152 116.168 855.696 116.536 856.144 117.048C856.608 117.56 856.84 118.248 856.84 119.112C856.84 120.36 856.344 121.352 855.352 122.088C854.376 122.824 853.024 123.192 851.296 123.192ZM866.206 123.192C864.814 123.192 863.55 122.888 862.414 122.28C861.278 121.672 860.39 120.84 859.75 119.784C859.11 118.712 858.79 117.512 858.79 116.184C858.79 114.856 859.11 113.664 859.75 112.608C860.39 111.536 861.278 110.696 862.414 110.088C863.55 109.48 864.814 109.176 866.206 109.176C867.614 109.176 868.878 109.48 869.998 110.088C871.134 110.696 872.022 111.536 872.662 112.608C873.302 113.664 873.622 114.856 873.622 116.184C873.622 117.512 873.302 118.712 872.662 119.784C872.022 120.84 871.134 121.672 869.998 122.28C868.878 122.888 867.614 123.192 866.206 123.192ZM866.206 121.176C867.166 121.176 868.03 120.96 868.798 120.528C869.566 120.096 870.166 119.504 870.598 118.752C871.046 118 871.27 117.144 871.27 116.184C871.27 115.224 871.046 114.368 870.598 113.616C870.166 112.864 869.566 112.272 868.798 111.84C868.03 111.408 867.166 111.192 866.206 111.192C865.246 111.192 864.382 111.408 863.614 111.84C862.846 112.272 862.238 112.864 861.79 113.616C861.358 114.368 861.142 115.224 861.142 116.184C861.142 117.144 861.358 118 861.79 118.752C862.238 119.504 862.846 120.096 863.614 120.528C864.382 120.96 865.246 121.176 866.206 121.176ZM886.128 123L883.2 118.92C883.072 118.936 882.864 118.944 882.576 118.944H879.336V123H877.008V109.368H882.576C884.384 109.368 885.808 109.792 886.848 110.64C887.888 111.488 888.408 112.664 888.408 114.168C888.408 115.208 888.144 116.096 887.616 116.832C887.104 117.568 886.368 118.12 885.408 118.488L888.648 123H886.128ZM882.432 117.048C883.616 117.048 884.512 116.8 885.12 116.304C885.744 115.808 886.056 115.096 886.056 114.168C886.056 113.24 885.744 112.528 885.12 112.032C884.512 111.536 883.616 111.288 882.432 111.288H879.336V117.048H882.432ZM894.315 111.288H889.659V109.368H901.299V111.288H896.643V123H894.315V111.288ZM903.726 109.368H906.054V123H903.726V109.368ZM920.911 121.056V123H910.687V109.368H920.647V111.288H913.015V115.128H919.807V117.024H913.015V121.056H920.911ZM928.359 123.192C927.303 123.192 926.271 123.048 925.263 122.76C924.271 122.456 923.495 122.056 922.935 121.56L923.847 119.736C924.391 120.184 925.071 120.544 925.887 120.816C926.719 121.088 927.575 121.224 928.455 121.224C929.527 121.224 930.311 121.048 930.807 120.696C931.319 120.344 931.575 119.888 931.575 119.328C931.575 118.896 931.423 118.544 931.119 118.272C930.831 118 930.463 117.792 930.015 117.648C929.567 117.504 928.959 117.352 928.191 117.192C927.151 116.968 926.303 116.736 925.647 116.496C925.007 116.256 924.455 115.88 923.991 115.368C923.543 114.84 923.319 114.128 923.319 113.232C923.319 112.016 923.807 111.04 924.783 110.304C925.775 109.552 927.119 109.176 928.815 109.176C929.679 109.176 930.511 109.28 931.311 109.488C932.127 109.68 932.823 109.968 933.399 110.352L932.559 112.224C931.519 111.504 930.247 111.144 928.743 111.144C927.703 111.144 926.927 111.328 926.415 111.696C925.903 112.048 925.647 112.512 925.647 113.088C925.647 113.52 925.791 113.872 926.079 114.144C926.383 114.416 926.759 114.624 927.207 114.768C927.671 114.912 928.287 115.064 929.055 115.224C930.111 115.464 930.951 115.704 931.575 115.944C932.215 116.168 932.759 116.536 933.207 117.048C933.671 117.56 933.903 118.248 933.903 119.112C933.903 120.36 933.407 121.352 932.415 122.088C931.439 122.824 930.087 123.192 928.359 123.192ZM949.69 123.192C948.298 123.192 947.034 122.888 945.898 122.28C944.778 121.672 943.898 120.84 943.258 119.784C942.618 118.712 942.298 117.512 942.298 116.184C942.298 114.856 942.618 113.664 943.258 112.608C943.898 111.536 944.778 110.696 945.898 110.088C947.034 109.48 948.298 109.176 949.69 109.176C952.042 109.176 953.834 109.888 955.066 111.312L953.578 112.824C952.554 111.736 951.282 111.192 949.762 111.192C948.786 111.192 947.906 111.408 947.122 111.84C946.354 112.256 945.746 112.848 945.298 113.616C944.866 114.368 944.65 115.224 944.65 116.184C944.65 117.128 944.866 117.984 945.298 118.752C945.746 119.504 946.354 120.096 947.122 120.528C947.906 120.96 948.786 121.176 949.762 121.176C951.266 121.176 952.538 120.624 953.578 119.52L955.066 121.032C953.818 122.472 952.026 123.192 949.69 123.192ZM966.485 119.76H959.165L957.725 123H955.445L961.685 109.368H963.989L970.253 123H967.901L966.485 119.76ZM965.669 117.912L962.837 111.48L959.981 117.912H965.669ZM978.043 123.192C976.171 123.192 974.707 122.664 973.651 121.608C972.595 120.552 972.067 119.072 972.067 117.168V109.368H974.395V117.12C974.395 118.448 974.707 119.456 975.331 120.144C975.955 120.832 976.867 121.176 978.067 121.176C979.251 121.176 980.155 120.832 980.779 120.144C981.419 119.456 981.739 118.448 981.739 117.12V109.368H984.019V117.168C984.019 119.072 983.491 120.552 982.435 121.608C981.379 122.664 979.915 123.192 978.043 123.192ZM992.507 123.192C991.451 123.192 990.419 123.048 989.411 122.76C988.419 122.456 987.643 122.056 987.083 121.56L987.995 119.736C988.539 120.184 989.219 120.544 990.035 120.816C990.867 121.088 991.723 121.224 992.603 121.224C993.675 121.224 994.459 121.048 994.955 120.696C995.467 120.344 995.723 119.888 995.723 119.328C995.723 118.896 995.571 118.544 995.267 118.272C994.979 118 994.611 117.792 994.163 117.648C993.715 117.504 993.107 117.352 992.339 117.192C991.299 116.968 990.451 116.736 989.795 116.496C989.155 116.256 988.603 115.88 988.139 115.368C987.691 114.84 987.467 114.128 987.467 113.232C987.467 112.016 987.955 111.04 988.931 110.304C989.923 109.552 991.267 109.176 992.963 109.176C993.827 109.176 994.659 109.28 995.459 109.488C996.275 109.68 996.971 109.968 997.547 110.352L996.707 112.224C995.667 111.504 994.395 111.144 992.891 111.144C991.851 111.144 991.075 111.328 990.563 111.696C990.051 112.048 989.795 112.512 989.795 113.088C989.795 113.52 989.939 113.872 990.227 114.144C990.531 114.416 990.907 114.624 991.355 114.768C991.819 114.912 992.435 115.064 993.203 115.224C994.259 115.464 995.099 115.704 995.723 115.944C996.363 116.168 996.907 116.536 997.355 117.048C997.819 117.56 998.051 118.248 998.051 119.112C998.051 120.36 997.555 121.352 996.563 122.088C995.587 122.824 994.235 123.192 992.507 123.192ZM1011.5 121.056V123H1001.27V109.368H1011.23V111.288H1003.6V115.128H1010.39V117.024H1003.6V121.056H1011.5ZM1033.69 109.368L1027.62 123H1025.32L1019.27 109.368H1021.77L1026.52 120.24L1031.34 109.368H1033.69ZM1036.22 109.368H1038.55V123H1036.22V109.368ZM1053.4 121.056V123H1043.18V109.368H1053.14V111.288H1045.51V115.128H1052.3V117.024H1045.51V121.056H1053.4ZM1056.87 109.368H1059.2V123H1056.87V109.368ZM1063.83 109.368H1066.16V121.056H1073.48V123H1063.83V109.368ZM1075.99 109.368H1078.32V121.056H1085.64V123H1075.99V109.368ZM1098.38 121.056V123H1088.16V109.368H1098.12V111.288H1090.48V115.128H1097.28V117.024H1090.48V121.056H1098.38ZM1105.83 123.192C1104.77 123.192 1103.74 123.048 1102.73 122.76C1101.74 122.456 1100.96 122.056 1100.4 121.56L1101.32 119.736C1101.86 120.184 1102.54 120.544 1103.36 120.816C1104.19 121.088 1105.04 121.224 1105.92 121.224C1107 121.224 1107.78 121.048 1108.28 120.696C1108.79 120.344 1109.04 119.888 1109.04 119.328C1109.04 118.896 1108.89 118.544 1108.59 118.272C1108.3 118 1107.93 117.792 1107.48 117.648C1107.04 117.504 1106.43 117.352 1105.66 117.192C1104.62 116.968 1103.77 116.736 1103.12 116.496C1102.48 116.256 1101.92 115.88 1101.46 115.368C1101.01 114.84 1100.79 114.128 1100.79 113.232C1100.79 112.016 1101.28 111.04 1102.25 110.304C1103.24 109.552 1104.59 109.176 1106.28 109.176C1107.15 109.176 1107.98 109.28 1108.78 109.488C1109.6 109.68 1110.29 109.968 1110.87 110.352L1110.03 112.224C1108.99 111.504 1107.72 111.144 1106.21 111.144C1105.17 111.144 1104.4 111.328 1103.88 111.696C1103.37 112.048 1103.12 112.512 1103.12 113.088C1103.12 113.52 1103.26 113.872 1103.55 114.144C1103.85 114.416 1104.23 114.624 1104.68 114.768C1105.14 114.912 1105.76 115.064 1106.52 115.224C1107.58 115.464 1108.42 115.704 1109.04 115.944C1109.68 116.168 1110.23 116.536 1110.68 117.048C1111.14 117.56 1111.37 118.248 1111.37 119.112C1111.37 120.36 1110.88 121.352 1109.88 122.088C1108.91 122.824 1107.56 123.192 1105.83 123.192ZM1118.58 123.192C1117.52 123.192 1116.49 123.048 1115.48 122.76C1114.49 122.456 1113.71 122.056 1113.15 121.56L1114.07 119.736C1114.61 120.184 1115.29 120.544 1116.11 120.816C1116.94 121.088 1117.79 121.224 1118.67 121.224C1119.75 121.224 1120.53 121.048 1121.03 120.696C1121.54 120.344 1121.79 119.888 1121.79 119.328C1121.79 118.896 1121.64 118.544 1121.34 118.272C1121.05 118 1120.68 117.792 1120.23 117.648C1119.79 117.504 1119.18 117.352 1118.41 117.192C1117.37 116.968 1116.52 116.736 1115.87 116.496C1115.23 116.256 1114.67 115.88 1114.21 115.368C1113.76 114.84 1113.54 114.128 1113.54 113.232C1113.54 112.016 1114.03 111.04 1115 110.304C1115.99 109.552 1117.34 109.176 1119.03 109.176C1119.9 109.176 1120.73 109.28 1121.53 109.488C1122.35 109.68 1123.04 109.968 1123.62 110.352L1122.78 112.224C1121.74 111.504 1120.47 111.144 1118.96 111.144C1117.92 111.144 1117.15 111.328 1116.63 111.696C1116.12 112.048 1115.87 112.512 1115.87 113.088C1115.87 113.52 1116.01 113.872 1116.3 114.144C1116.6 114.416 1116.98 114.624 1117.43 114.768C1117.89 114.912 1118.51 115.064 1119.27 115.224C1120.33 115.464 1121.17 115.704 1121.79 115.944C1122.43 116.168 1122.98 116.536 1123.43 117.048C1123.89 117.56 1124.12 118.248 1124.12 119.112C1124.12 120.36 1123.63 121.352 1122.63 122.088C1121.66 122.824 1120.31 123.192 1118.58 123.192ZM1137.57 121.056V123H1127.34V109.368H1137.3V111.288H1129.67V115.128H1136.46V117.024H1129.67V121.056H1137.57Z" fill="#002637"/>
<path d="M593.969 42.7348C592.256 44.8289 589.954 46.3327 587.377 47.0421C584.799 47.7514 582.071 47.6319 579.562 46.6996C577.053 45.7674 574.886 44.0678 573.354 41.8315C571.822 39.5952 571 36.9307 571 34.2C571 28.1124 575.234 24.1946 580.88 18.9696C585.805 14.4096 591.807 8.854 597 0C602.193 8.854 608.195 14.4096 613.12 18.9696C618.766 24.1946 623 28.1124 623 34.2C623 36.9307 622.178 39.5952 620.646 41.8315C619.114 44.0678 616.947 45.7674 614.438 46.6996C611.929 47.6319 609.201 47.7514 606.623 47.0421C604.046 46.3327 601.744 44.8289 600.031 42.7348C601.687 46.5774 603.652 50.2723 605.907 53.7814C606.765 55.1114 605.833 57 604.28 57H589.72C588.164 57 587.231 55.1114 588.093 53.7814C590.348 50.2723 592.313 46.5774 593.969 42.7348V42.7348Z" fill="#E08330"/>
<path d="M615.572 111.382C621.297 113.49 625.177 115.539 627.213 117.53C627.751 118.076 628.184 118.818 628.51 119.755C628.837 120.691 629 121.765 629 122.975C629 124.185 628.673 125.503 628.02 126.927C627.367 128.352 626.387 129.728 625.081 131.055C623.352 132.773 621.421 133.993 619.289 134.715C617.157 135.437 615.313 135.681 613.757 135.447C612.2 135.213 611.173 134.666 610.673 133.807C609.713 132.168 608.33 129.943 606.524 127.132C604.718 124.322 603.104 121.765 601.683 119.462C602.067 123.053 602.413 127.015 602.72 131.348C603.028 135.681 603.181 138.316 603.181 139.253C603.181 140.307 602.826 141.195 602.115 141.917C601.404 142.639 600.54 143 599.522 143C598.503 143 597.629 142.639 596.899 141.917C596.169 141.195 595.804 140.307 595.804 139.253C595.804 138.277 595.958 135.535 596.265 131.026C596.573 126.517 596.938 122.468 597.36 118.876C595.9 121.14 594.248 123.648 592.404 126.4C590.56 129.152 589.177 131.309 588.255 132.87C587.832 133.495 587.131 134.041 586.151 134.51C585.171 134.978 584.048 135.291 582.78 135.447C581.512 135.603 580.1 135.417 578.544 134.89C576.988 134.363 575.547 133.475 574.221 132.226C572.896 130.977 571.878 129.552 571.167 127.952C570.456 126.352 570.072 124.849 570.014 123.443C569.957 122.038 570.072 120.77 570.36 119.638C570.648 118.506 571.061 117.686 571.599 117.178C572.79 116.046 574.702 114.865 577.334 113.636C579.965 112.406 582.876 111.284 586.065 110.269C584.413 109.684 582.559 109.098 580.503 108.513C578.448 107.927 576.7 107.39 575.259 106.902C573.818 106.414 572.483 105.8 571.253 105.058C570.639 104.668 570.264 103.867 570.13 102.657C569.995 101.447 570.101 100.081 570.447 98.5586C570.792 97.0362 571.426 95.3968 572.348 93.6402C573.271 91.8836 574.385 90.3124 575.691 88.9267C576.997 87.5409 578.486 86.3699 580.158 85.4135C581.829 84.4572 583.385 83.7936 584.826 83.4227C586.266 83.0519 587.573 82.9251 588.745 83.0422C589.916 83.1593 590.733 83.4911 591.194 84.0376C594.383 88.0191 597.111 93.6987 599.378 101.076C601.145 95.9237 603.758 90.3417 607.215 84.3303C607.561 83.6667 608.406 83.2764 609.751 83.1593C611.096 83.0422 612.614 83.169 614.304 83.5399C615.995 83.9107 617.791 84.5743 619.693 85.5306C621.594 86.487 623.218 87.6288 624.562 88.956C625.869 90.2832 626.896 91.786 627.646 93.4645C628.395 95.143 628.818 96.7044 628.914 98.1487C629.01 99.593 628.923 100.891 628.654 102.042C628.385 103.194 627.982 104.043 627.444 104.59C625.254 106.775 621.297 109.04 615.572 111.382Z" fill="#4EAABF"/>
</svg>
